<svg xmlns="http://www.w3.org/2000/svg" xmlns:xlink="http://www.w3.org/1999/xlink" width="120" height="33" viewBox="0 0 120 33">
    <defs>
        <path id="a" d="M.04.575H24.45V32.96H.04z"/>
    </defs>
    <g fill="none" fill-rule="evenodd">
        <path fill="#50504F" d="M46.22 15.586l-.005 5.728c-.404.15-1.262.367-2.856.367-3.915 0-6.444-2.237-6.444-5.699 0-3.431 2.612-5.65 6.655-5.65 1.528 0 2.718.219 3.854.706l.358.154.752-2.256-.28-.126c-.828-.374-2.534-.81-4.61-.81C37.018 8 34 12.18 34 16.064c0 2.254.868 4.327 2.381 5.687C38.056 23.264 40.277 24 43.171 24c2.52 0 4.589-.594 5.599-.947l.23-.081v-7.38l-2.78-.006M53 24h2V8h-2zM63.745 21.58V8H61v16h10v-2.42h-7.255M77.716 21.621v-4.766h6.537v-2.38h-6.537V10.38h6.917V8H75v16h10v-2.379h-7.284M95.413 11.148c.156.486 1.686 4.518 2.137 5.684h-4.235s1.948-5.202 2.098-5.684zM96.843 8H94.09L88 24h2.811l1.787-4.885h5.674L100.14 24H103L96.843 8zM117.65 10.204C116.044 8.743 113.546 8 110.229 8L105 8.005v2.258l5.29.014c2.433 0 4.254.573 5.412 1.704.937.913 1.404 2.166 1.39 3.724 0 1.726-.56 3.177-1.619 4.199-1.232 1.187-3.16 1.812-5.577 1.806-.732 0-1.533-.01-2.118-.068v-7.116H105v9.267l.315.031c1.213.12 2.538.176 4.221.176 3.447 0 6.286-.869 7.995-2.446 1.593-1.51 2.469-3.615 2.469-5.93 0-2.214-.791-4.037-2.35-5.42"/>
        <g>
            <mask id="b" fill="#fff">
                <use xlink:href="#a"/>
            </mask>
            <path fill="#C53645" d="M24.449.664a.09.09 0 0 0-.087-.088h-.001-.012C4.053 2.5 1.466 16.453 8.101 20.907c-1.144 5.037-.078 4.92-.078 4.92.203-1.501.505-2.992.89-4.453C11.502 11.556 17.91 2.99 24.37.754V.752a.09.09 0 0 0 .079-.088" mask="url(#b)"/>
            <path fill="#C53645" d="M23.376 3.87a.09.09 0 0 0-.09-.09.089.089 0 0 0-.084.06c-1.677 3.279-2.161 7.973-3.44 11.564-1.462 4.11-4.06 6.876-8.073 6.614v9.988S.971 27.174.971 19.405V4.848L9.73 4.05h.003a.09.09 0 0 0 .005-.178V3.87H0v15.535C0 28.145 11.686 33 11.686 33s11.692-4.935 11.692-13.595V3.87h-.002" mask="url(#b)"/>
        </g>
    </g>
</svg>
