<svg xmlns="http://www.w3.org/2000/svg" width="31" height="24" viewBox="0 0 31 24">
    <g fill="none" fill-rule="evenodd" stroke="#ACCF84" stroke-linecap="round" stroke-linejoin="round">
        <path d="M22.433 15.57v6.946H8.643V15.91M13.931 8.845h3.163M8.39 15.57L1.5 5.98l6.844-4.905L13.93 8.85"/>
        <path d="M2.49 5.271l-.92-1.284L6.433.5l.92 1.284M22.223 16.113L29.576 5.98l-6.844-4.905-5.638 7.77"/>
        <path d="M28.587 5.271l.92-1.284L24.64.5l-.92 1.284M13.213 17.46a2.324 2.324 0 1 1 4.649 0 2.324 2.324 0 0 1-4.648 0zM10.9 12.514a1.012 1.012 0 1 1 2.023 0 1.012 1.012 0 0 1-2.024 0zM17.313 12.514a1.587 1.587 0 1 1 3.174 0 1.587 1.587 0 0 1-3.174 0zM11.183 13.526l2.189 4.767M11.911 11.503l6.989-.575M20.113 13.526l-2.63 5.202M10.434 2.101L1.996 8.323M11.573 3.862l-8.438 6.222M12.861 5.483l-8.438 6.222M20.33 2.171l8.437 6.222M19.19 3.932l8.438 6.222M17.902 5.553l8.438 6.222"/>
    </g>
</svg>
