<svg xmlns="http://www.w3.org/2000/svg" width="23" height="22" viewBox="0 0 23 22">
    <path fill="none" fill-rule="evenodd" stroke="#ACCF84" stroke-linecap="round" stroke-linejoin="round" stroke-width="2" d="M19.67 1c-.837 0-1.523.684-1.523 1.52v6.903H12.62V2.521c0-.837-.686-1.521-1.524-1.521s-1.524.684-1.524 1.52v6.903H4.047V2.521C4.047 1.684 3.361 1 2.524 1 1.685 1 1 1.684 1 2.52v16.848c0 .836.685 1.521 1.524 1.521.837 0 1.523-.685 1.523-1.52v-6.904h5.526v6.903c0 .836.686 1.521 1.524 1.521s1.524-.685 1.524-1.52v-6.904h5.526v6.903c0 .836.686 1.521 1.523 1.521.839 0 1.524-.685 1.524-1.52V2.52c0-.837-.685-1.521-1.524-1.521z"/>
</svg>
