<svg xmlns="http://www.w3.org/2000/svg" width="27" height="18" viewBox="0 0 27 18">
    <g fill="none" fill-rule="evenodd">
        <path fill="#FFF" stroke="#C73442" d="M12.5.5h14v17h-14z"/>
        <path fill="#C73442" d="M23 1h3v3h-3z"/>
        <g>
            <path fill="#FFF" d="M0 4h25v12H0z"/>
            <path fill="#30556B" d="M.792 14V5.996h3.156c2.508 0 4.248 1.596 4.248 4.008S6.456 14 3.948 14H.792zm1.704-1.5h1.452c1.584 0 2.508-1.14 2.508-2.496 0-1.416-.864-2.508-2.508-2.508H2.496V12.5zm6.028-2.496c0-2.412 1.764-4.14 4.176-4.14 2.424 0 4.188 1.728 4.188 4.14s-1.764 4.14-4.188 4.14c-2.412 0-4.176-1.728-4.176-4.14zm6.612 0c0-1.5-.96-2.628-2.436-2.628s-2.424 1.128-2.424 2.628c0 1.488.948 2.628 2.424 2.628s2.436-1.14 2.436-2.628zm6.268 4.14c-2.34 0-4.2-1.68-4.2-4.14s1.86-4.14 4.2-4.14c1.824 0 2.844.96 3.408 1.956l-1.464.72a2.192 2.192 0 0 0-1.944-1.164c-1.392 0-2.448 1.116-2.448 2.628s1.056 2.628 2.448 2.628a2.17 2.17 0 0 0 1.944-1.164l1.464.708c-.576.996-1.584 1.968-3.408 1.968z"/>
        </g>
    </g>
</svg>
