<svg xmlns="http://www.w3.org/2000/svg" xmlns:xlink="http://www.w3.org/1999/xlink" width="20" height="20" viewBox="0 0 20 20">
    <defs>
        <path id="a" d="M0 20V0h20v20z"/>
    </defs>
    <g fill="none" fill-rule="evenodd">
        <mask id="b" fill="#fff">
            <use xlink:href="#a"/>
        </mask>
        <path fill="#C73442" d="M12.088 12.125a5.865 5.865 0 0 1-4.16 1.717h-.039a5.915 5.915 0 0 1-5.867-5.947A5.874 5.874 0 0 1 3.765 3.74a5.865 5.865 0 0 1 4.16-1.717h.04a5.86 5.86 0 0 1 4.164 1.757 5.874 5.874 0 0 1 1.703 4.19 5.876 5.876 0 0 1-1.744 4.155m7.639 4.731l-.12-.121-4.822-4.827a7.9 7.9 0 0 0 1.068-3.925C15.881 3.6 12.355.028 7.977 0h-.052C3.572 0 .028 3.519 0 7.882c-.027 4.381 3.499 7.956 7.876 7.984h.051a7.882 7.882 0 0 0 3.992-1.081l4.818 4.822.12.12a.933.933 0 0 0 1.32 0l1.55-1.55a.934.934 0 0 0 0-1.32" mask="url(#b)"/>
    </g>
</svg>
