<svg xmlns="http://www.w3.org/2000/svg" width="27" height="18" viewBox="0 0 27 18">
    <g fill="none" fill-rule="evenodd">
        <path fill="#FFF" stroke="#C73442" d="M12.5.5h14v17h-14z"/>
        <path fill="#C73442" d="M23 1h3v3h-3z"/>
        <g>
            <path fill="#FFF" d="M0 4h25v12H0z"/>
            <path fill="#30556B" d="M2.251 14V5.996h3.744c1.74 0 2.688 1.176 2.688 2.58 0 1.392-.96 2.556-2.688 2.556h-2.04V14H2.251zm4.692-5.436c0-.66-.504-1.104-1.176-1.104H3.955v2.208h1.812c.672 0 1.176-.432 1.176-1.104zM9.601 14V5.996h3.156c2.508 0 4.248 1.596 4.248 4.008S15.265 14 12.757 14H9.6zm1.704-1.5h1.452c1.584 0 2.508-1.14 2.508-2.496 0-1.416-.864-2.508-2.508-2.508h-1.452V12.5zm6.773 1.5V5.996h5.664V7.46h-3.96V9.2h3.876v1.464h-3.876V14h-1.704z"/>
        </g>
    </g>
</svg>
