<svg xmlns="http://www.w3.org/2000/svg" width="28" height="23" viewBox="0 0 28 23">
    <path fill="#FFF" fill-rule="evenodd" d="M28 3.026c-.757 1.06-1.665 2.119-2.876 3.027v.756c0 4.086-1.513 7.869-4.54 11.198C17.557 21.336 13.622 23 8.778 23 5.6 23 2.724 22.092 0 20.428c.605.15 1.06.15 1.362.15 2.573 0 4.995-.756 7.114-2.42a5.29 5.29 0 0 1-3.33-1.21c-.908-.757-1.665-1.665-1.968-2.876.303 0 .757.152 1.06.152.454 0 .908-.152 1.513-.303-1.362-.303-2.421-.908-3.33-1.967-.756-1.06-1.21-2.27-1.21-3.632a5.349 5.349 0 0 0 2.573.606C2.119 7.868 1.21 6.204 1.21 4.086c0-.908.303-1.968.757-2.875 3.027 3.782 6.962 5.75 11.805 5.9-.151-.302-.151-.756-.151-1.361 0-1.664.605-3.026 1.664-4.086C16.346.605 17.708 0 19.373 0c1.665 0 3.027.605 4.086 1.816 1.211-.152 2.422-.605 3.633-1.362-.454 1.362-1.21 2.421-2.573 3.178 1.362.15 2.422-.152 3.481-.606z"/>
</svg>
