<svg xmlns="http://www.w3.org/2000/svg" xmlns:xlink="http://www.w3.org/1999/xlink" width="63" height="78" viewBox="0 0 63 78">
    <defs>
        <path id="a" d="M0 77h62V0H0z"/>
    </defs>
    <g fill="none" fill-rule="evenodd" transform="translate(1)">
        <path stroke="#ACCF84" stroke-linecap="round" stroke-linejoin="round" stroke-width="3" d="M59.933 46.713c0 16.16-13.185 29.26-29.45 29.26s-29.45-13.1-29.45-29.26c0-16.16 13.185-29.26 29.45-29.26s29.45 13.1 29.45 29.26z"/>
        <path stroke="#ACCF84" stroke-linecap="round" stroke-linejoin="round" stroke-width="3" d="M54.767 46.2c0 13.041-10.641 23.613-23.767 23.613S7.233 59.241 7.233 46.2 17.874 22.587 31 22.587 54.767 33.159 54.767 46.2zM30.483 30.8v15.4M38.233 52.36l-8.266-6.16"/>
        <mask id="b" fill="#fff">
            <use xlink:href="#a"/>
        </mask>
        <path stroke="#ACCF84" stroke-linecap="round" stroke-linejoin="round" stroke-width="3" d="M25.833 17.453H34.1V9.24h-8.267zM37.103 9.24H23.864c-1.759 0-3.197-1.369-3.197-3.042v-2.13c0-1.672 1.438-3.041 3.197-3.041h13.239c1.758 0 3.197 1.369 3.197 3.042v2.129c0 1.673-1.439 3.042-3.197 3.042zM5.016 30.8L1.98 27.746C.735 26.492.715 24.42 1.936 23.14l1.562-1.635a3.124 3.124 0 0 1 4.486-.045l2.35 2.363M51.667 25.18l3.906-2.147c1.605-.882 3.714-.416 4.688 1.036l1.246 1.854c.974 1.452.46 3.36-1.145 4.242l-3.025 1.662M30.483 23.613v2.054M42.367 27.72l-1.034 2.053M50.633 36.96l-2.066 1.027M52.7 50.039l-2.067-.491M46.5 60.573l-1.033-1.026M36.012 67.76l-.724-2.053M23.796 66.733l.975-2.053M13.433 59.547l1.034-1.027M8.267 47.857l2.066-.234M11.367 35.933l2.066 1.027M19.633 26.693l1.034 2.054" mask="url(#b)"/>
    </g>
</svg>
