<?xml version="1.0" encoding="UTF-8"?>
<svg width="96px" height="79px" viewBox="0 0 96 79" version="1.1" xmlns="http://www.w3.org/2000/svg" xmlns:xlink="http://www.w3.org/1999/xlink">
    <!-- Generator: Sketch 52.5 (67469) - http://www.bohemiancoding.com/sketch -->
    <title>Group 26</title>
    <desc>Created with Sketch.</desc>
    <g id="Welcome" stroke="none" stroke-width="1" fill="none" fill-rule="evenodd" stroke-linecap="round" stroke-linejoin="round">
        <g id="Home-Desktop" transform="translate(-1046.000000, -1407.000000)" stroke="#ACCF84" stroke-width="3">
            <g id="Benefits" transform="translate(0.000000, 700.000000)">
                <g id="Group-26" transform="translate(1048.000000, 709.000000)">
                    <polyline id="Stroke-1" points="3 0 3 72 92 72"></polyline>
                    <polygon id="Stroke-3" points="16 64 28 64 28 27 16 27"></polygon>
                    <polygon id="Stroke-4" points="35 64 47 64 47 27 35 27"></polygon>
                    <polygon id="Stroke-5" points="53 64 65 64 65 27 53 27"></polygon>
                    <polygon id="Stroke-6" points="72 64 84 64 84 27 72 27"></polygon>
                    <g id="Group-25">
                        <path d="M0.332142857,0.378815789 L5.97857143,0.378815789" id="Stroke-7"></path>
                        <path d="M0.332142857,19.4553289 L5.97857143,19.4553289" id="Stroke-9"></path>
                        <path d="M0.332142857,38.5318421 L5.97857143,38.5318421" id="Stroke-11"></path>
                        <path d="M0.332142857,57.6083553 L5.97857143,57.6083553" id="Stroke-13"></path>
                        <path d="M92.4812593,69.0789474 L92.4812593,74.6710526" id="Stroke-15"></path>
                        <path d="M72.5732143,69.0789474 L72.5732143,74.6710526" id="Stroke-17"></path>
                        <path d="M52.6651693,69.0789474 L52.6651693,74.6710526" id="Stroke-19"></path>
                        <path d="M32.7571907,69.0789474 L32.7571907,74.6710526" id="Stroke-21"></path>
                        <path d="M12.8491457,69.0789474 L12.8491457,74.6710526" id="Stroke-23"></path>
                    </g>
                </g>
            </g>
        </g>
    </g>
</svg>