<?xml version="1.0" encoding="UTF-8"?>
<svg width="74px" height="74px" viewBox="0 0 74 74" version="1.1" xmlns="http://www.w3.org/2000/svg" xmlns:xlink="http://www.w3.org/1999/xlink">
    <!-- Generator: Sketch 52.5 (67469) - http://www.bohemiancoding.com/sketch -->
    <title>Group 5</title>
    <desc>Created with Sketch.</desc>
    <g id="Welcome" stroke="none" stroke-width="1" fill="none" fill-rule="evenodd" stroke-linecap="round" stroke-linejoin="round">
        <g id="Home-Desktop" transform="translate(-1145.000000, -1266.000000)" stroke="#ACCF84" stroke-width="3">
            <g id="Benefits" transform="translate(0.000000, 700.000000)">
                <g id="Group-5" transform="translate(1147.000000, 568.000000)">
                    <path d="M70,35 C70,54.3301098 54.3299829,70 34.9997165,70 C15.6700171,70 0,54.3301098 0,35 C0,15.6698902 15.6700171,0 34.9997165,0 C54.3299829,0 70,15.6698902 70,35 Z" id="Stroke-1"></path>
                    <path d="M35.8197391,48.1629298 C36.3254689,48.0592014 36.8384155,47.914095 37.3613545,47.7242096 C37.8831833,47.5354579 38.3467227,47.2854894 38.7514176,46.9754377 C39.1555573,46.6659529 39.4841984,46.2969518 39.7367858,45.866167 C39.9893731,45.4365159 40.1159443,44.9292102 40.1159443,44.3442499 C40.1159443,43.7938657 40.0226813,43.3296385 39.8378207,42.9510014 C39.6524049,42.5723643 39.4081447,42.2538103 39.1050399,41.9959063 C38.801935,41.7380023 38.4477576,41.5146744 38.0436179,41.3253558 C37.6394782,41.1366041 37.2175741,40.9557879 36.7801261,40.7829072 L35.8197391,40.4218415 L35.8197391,48.1629298 Z M32.4839209,24.8880841 C31.540188,25.0949742 30.69749,25.4560398 29.9569372,25.9724147 C29.2152742,26.4887895 28.8449978,27.2970777 28.8449978,28.3978461 C28.8449978,29.1896964 28.9965502,29.8086661 29.299655,30.2553218 C29.603315,30.7031112 29.9569372,31.0551077 30.361077,31.3130117 C30.7657718,31.5714826 31.1699116,31.7522988 31.5746064,31.8548936 C31.9787462,31.958622 32.281851,32.0447789 32.4839209,32.1139312 L32.4839209,24.8880841 Z M35.8197391,17.6123567 C37.6394782,17.6123567 39.5258337,17.8532561 41.4804711,18.334488 C43.4339982,18.8174203 45.1527023,19.6597178 46.6354733,20.8636478 L41.7835759,26.9008691 C40.9752964,26.1787379 40.0476625,25.6544275 39.0040049,25.3273712 C37.9592371,25.0008817 36.8978151,24.8030608 35.8197391,24.7339086 L35.8197391,32.9392241 L40.6716365,34.3840534 C42.8955153,35.0727422 44.6725088,36.1995843 46.0037273,37.7640131 C47.3343907,39.3301423 48,41.3168535 48,43.7247134 C48,45.5487467 47.679686,47.1483184 47.0401681,48.5239955 C46.39954,49.9002393 45.5235338,51.0707268 44.4121496,52.0331906 C43.3002102,52.996788 42.0022999,53.7534954 40.5200841,54.3038796 C39.036758,54.8536969 37.4701614,55.2147626 35.8197391,55.3876433 L35.8197391,59 L32.4839209,59 L32.4839209,55.3876433 C30.260042,55.3876433 28.0444903,55.0775916 25.8378207,54.458622 C23.630596,53.8396523 21.6848408,52.7558887 20,51.2073309 L25.3576272,45.0663812 C26.2330782,46.1677163 27.2950553,46.9499307 28.541893,47.4147248 C29.7881756,47.878952 31.1016297,48.1629298 32.4839209,48.2660914 L32.4839209,39.5444011 L28.7944804,38.4090566 C26.2330782,37.5837637 24.2878782,36.4223454 22.9572148,34.9259353 C21.6254411,33.4295251 20.960387,31.3742285 20.960387,28.7594785 C20.960387,27.1423353 21.2801459,25.6805013 21.920774,24.3722761 C22.5602918,23.0657514 23.411872,21.9468447 24.4732939,21.0178234 C25.5347159,20.0893689 26.7643443,19.3332284 28.1627344,18.7471344 C29.5605694,18.1627409 31.0011499,17.7846706 32.4839209,17.6123567 L32.4839209,14 L35.8197391,14 L35.8197391,17.6123567 Z" id="Stroke-3"></path>
                </g>
            </g>
        </g>
    </g>
</svg>