<svg xmlns="http://www.w3.org/2000/svg" width="40" height="40" viewBox="0 0 40 40">
    <g fill="none" fill-rule="evenodd">
        <path fill="#0065A1" d="M0 40h40V0H0z"/>
        <g fill="#FFF">
            <path d="M11.21 8.448a2.782 2.782 0 1 1-.004 5.564 2.782 2.782 0 0 1 .004-5.564zM8.808 31.552h4.801V16.12h-4.8v15.432zM16.618 16.12h4.598v2.11h.065c.64-1.214 2.204-2.493 4.538-2.493 4.856 0 5.754 3.195 5.754 7.35v8.464h-4.797v-7.504c0-1.79-.03-4.091-2.491-4.091-2.496 0-2.877 1.95-2.877 3.963v7.632h-4.79V16.12z"/>
        </g>
    </g>
</svg>
