<svg id="Layer_1" data-name="Layer 1" xmlns="http://www.w3.org/2000/svg" viewBox="0 0 232.86 45.02"><defs><style>.cls-1,.cls-3{fill:#fff;}.cls-1,.cls-2{fill-rule:evenodd;}.cls-2{fill:#b4d88b;}</style></defs><title>Logo National</title><path class="cls-1" d="M141,5.89L139.66,12h-7.5l1.32-6.12H141Zm81.82,33.63c-1.55,0-6,0-7.3,0l7.39-34h7.36l-7.45,34h0Zm-83.6-25.35s-3.64,17-5.47,25.35h-7.43c1.64-8.36,5.46-25.36,5.46-25.36h7.45ZM156,19.63c2.28,1.13,1.32,5.33.66,7.84-0.62,2.73-1.88,6.66-5.2,7-1.83.1-4.19,0.36-5.15-1.64-1-3.24.52-8.25,1.93-11s5.57-3.08,7.76-2.15h0Zm1.52-5.93c-6.2-.64-12.76.62-16,6.52C139,25,137,31.13,139.51,36.5c1.14,2.09,3.32,2.91,5.41,3.37,5.38,0.95,11.53.55,15.48-4.26,3.44-4.72,5.71-11.78,4-17.17-1-3.09-4.11-4.37-6.9-4.74h0ZM89.34,5.53L82,39.55l-7.83,0L65.78,18.84,61.26,39.57H53.4l7.4-34H69l7.85,20.53L81.38,5.54h8ZM102.6,27.58c-2.73,1-7.63.13-9.26,3.39a2.7,2.7,0,0,0,.26,2.8c1.41,1.47,3.71.89,5.46-.05,2.17-1.18,3.24-3.63,3.53-6V27.58h0Zm-7,11.92c-9,1.34-9.58-3.59-9.68-5.4a9.54,9.54,0,0,1,3.85-7.85C93,24,98.12,24.75,102.36,23.59c1.2-.29,2-2.53,1-3.68s-4.12-1-5.38-.3c-1,.53-1.29,1.62-1.74,2.61H89.47a8.92,8.92,0,0,1,5.29-7.29c3.2-1.34,9.25-1.39,11.95-.58s3.53,1.82,4.05,3.13a9,9,0,0,1-.09,4.86l-2.31,11s0.08,0.65,1.85.57c-0.3,1.24-.87,3.88-1.14,5-2.48.63-6.48,1.6-7.67-1.54-0.23-.6-0.24-0.48-0.24-0.48a9.16,9.16,0,0,1-5.52,2.57h0ZM206.82,27.58c-2.74,1-7.63.13-9.26,3.39a2.69,2.69,0,0,0,.26,2.8c1.41,1.47,3.71.89,5.46-.05,2.17-1.18,3.25-3.63,3.53-6l0-.15h0Zm-7,11.92c-9,1.34-9.59-3.59-9.68-5.4A9.52,9.52,0,0,1,194,26.26c3.22-2.31,8.31-1.51,12.55-2.67,1.2-.29,2-2.53,1-3.68s-4.13-1-5.38-.3a5,5,0,0,0-1.74,2.61h-6.74A8.92,8.92,0,0,1,199,14.92c3.2-1.34,9.25-1.39,11.95-.58s3.53,1.82,4.05,3.13a9,9,0,0,1-.09,4.86l-2.31,11s0.08,0.65,1.86.57c-0.3,1.24-.87,3.88-1.14,5-2.48.63-6.48,1.6-7.67-1.54-0.23-.6-0.24-0.48-0.24-0.48a9.17,9.17,0,0,1-5.52,2.57h0Zm-78.42-5.39c-0.73,0-.87-0.46-0.74-1l3-13.73h3.77l1.11-5.15h-3.82l1.5-7.13H118.5L117,14.2h-2.88l-1.08,5.14,2.83,0-3,13.79a8.79,8.79,0,0,0,0,4.5,2.79,2.79,0,0,0,2.83,2h8.1L125,34.11h-3.61Zm68.35-18.46a4.9,4.9,0,0,0-2.84-1.8c-0.94-.28-7.7-1.25-10.42,3,0-1.15,0-2,0-2.68-1.74.06-6.14,0-7,0-0.23,1.1-5.22,24.2-5.47,25.34h7.52l3.65-17a4.6,4.6,0,0,1,4-3.47,4.33,4.33,0,0,1,1.25,0,2.22,2.22,0,0,1,2.21,2.88l-3.59,17.59h7.55l3.53-17.59s1.1-4.52-.4-6.26h0Z" transform="translate(0)"/><path class="cls-2" d="M7.61,44.67c-1.54-.13-5.69,1.27-7.27-2.29A4.61,4.61,0,0,1,1.63,37c1.68-1.41,4.12-2,7.66-.64L7.61,44.67h0ZM3.74,25.19c0,0.11,5.92-6.15,22.21,7,12.6,10.18,20.13,5,20.09,4.94l-1.4,6.27s-6,6.36-22.15-6.45C9.18,26.4,2.38,31.29,2.38,31.29s1.35-6.37,1.37-6.09h0ZM6.38,13.25c0,0.1,5.91-6.15,22.21,7,12.59,10.19,20.12,5,20.09,4.94L47.29,31.5s-6,6.36-22.15-6.44C11.81,14.46,5,19.34,5,19.34S6.36,13,6.38,13.25h0ZM9,1.39A7.1,7.1,0,0,1,13.64,0h0c3.49,0,9.13,1.64,17.53,8.43,12.59,10.19,20.12,5,20.09,4.94l-1.4,6.26s-6,6.36-22.14-6.44C14.41,2.6,7.6,7.48,7.6,7.48S9,1.11,9,1.39H9ZM45.85,1c1.55,0.13,5.69-1.28,7.28,2.29a4.64,4.64,0,0,1-1.29,5.34c-1.69,1.4-4.13,2-7.66.64L45.85,1h0Z" transform="translate(0)"/><path class="cls-3" d="M230.25,36.36c0.35,0,.61-0.07.61-0.48s-0.46-.4-0.77-0.4h-0.72v0.87h0.88Zm1.13,1.83H230.6l-0.7-1.35h-0.54v1.35h-0.67V35h1.55c0.83,0,1.24.22,1.24,1a0.78,0.78,0,0,1-.88.86l0.78,1.35h0Zm0.7-1.61a2.17,2.17,0,1,0-2.17,2.25,2.13,2.13,0,0,0,2.17-2.25h0Zm-5.13,0a3,3,0,1,1,3,3,3,3,0,0,1-3-3h0Z" transform="translate(0)"/></svg>