<?xml version="1.0" encoding="UTF-8"?>
<svg width="99px" height="68px" viewBox="0 0 99 68" version="1.1" xmlns="http://www.w3.org/2000/svg" xmlns:xlink="http://www.w3.org/1999/xlink">
    <!-- Generator: Sketch 52.5 (67469) - http://www.bohemiancoding.com/sketch -->
    <title>Group 7</title>
    <desc>Created with Sketch.</desc>
    <g id="Welcome" stroke="none" stroke-width="1" fill="none" fill-rule="evenodd" stroke-linecap="round" stroke-linejoin="round">
        <g id="Home-Desktop" transform="translate(-835.000000, -1429.000000)" stroke="#ACCF84" stroke-width="3">
            <g id="Group-7" transform="translate(837.000000, 1431.000000)">
                <path d="M82,31.6407923 C82,17.2801144 66.1652487,5.63924264 46.6313957,5.63924264 C41.9173123,5.63924264 37.4225792,6.32269088 33.3100867,7.5528977 C33.1329192,3.33967775 30.7421313,0 27.8114044,0 C24.7651616,0 22.2952,3.60542785 22.2952,8.05260962 C22.2952,9.58544096 22.593724,11.0133709 23.1031617,12.2327698 C19.1451229,14.8279657 15.9866092,18.0665567 13.9313363,21.7266604 L0,21.7266604 L0,41.5059702 L13.9047287,41.5059702 C15.4284991,44.2353128 17.5648926,46.7306936 20.1893079,48.9018338 L20.1893079,64 L33.3276087,64 L33.3276087,55.7337731 C37.4355585,56.9608011 41.923802,57.642342 46.6313957,57.642342 C51.2565708,57.642342 55.6695342,56.9830529 59.7190772,55.7960781 L59.7190772,64 L72.857378,64 L72.857378,49.0855701 C78.5384195,44.4718177 82,38.3538434 82,31.6407923 Z" id="Stroke-1"></path>
                <path d="M26,23 C26,24.1043811 25.1043811,25 24,25 C22.8950309,25 22,24.1043811 22,23 C22,21.8956189 22.8950309,21 24,21 C25.1043811,21 26,21.8956189 26,23 Z" id="Stroke-3"></path>
                <path d="M82,28.9269654 C82.2178302,30.4714938 83.8706245,31.5101532 85.4736476,31.6554027 C85.8621221,31.690463 86.2674025,31.6842022 86.6242045,31.5314398 C87.0695605,31.3411128 87.3837013,30.9510677 87.673926,30.5729181 C88.1541866,29.9468425 88.6305688,29.2919674 88.8315931,28.5362942 C89.031971,27.780621 88.9020485,26.894724 88.3093178,26.3669423 C87.7159407,25.8397867 86.6196798,25.867334 86.2047037,26.5359827 C86.0463405,26.7914216 86.0017403,27.0969464 85.9823488,27.3943323 C85.8873309,28.8868965 86.4031424,30.4264164 87.4644988,31.5114053 C88.5258552,32.5970204 90.1366348,33.1842793 91.6607995,32.9482488 C93.1849642,32.7122183 94.5585223,31.6190903 95,30.1860033" id="Stroke-5"></path>
            </g>
        </g>
    </g>
</svg>