<?xml version="1.0" encoding="UTF-8"?>
<svg width="78px" height="80px" viewBox="0 0 78 80" version="1.1" xmlns="http://www.w3.org/2000/svg" xmlns:xlink="http://www.w3.org/1999/xlink">
    <!-- Generator: Sketch 52.5 (67469) - http://www.bohemiancoding.com/sketch -->
    <title>Group 19</title>
    <desc>Created with Sketch.</desc>
    <g id="Welcome" stroke="none" stroke-width="1" fill="none" fill-rule="evenodd">
        <g id="Home-Desktop" transform="translate(-1023.000000, -1255.000000)">
            <g id="Benefits" transform="translate(0.000000, 700.000000)">
                <g id="Group-19" transform="translate(1025.000000, 557.000000)">
                    <polygon id="Stroke-1" stroke="#ACCF84" stroke-width="3" stroke-linecap="round" stroke-linejoin="round" points="46.0079199 76 0 24.7366088 6.46352327 3.97502144 27.9920801 0 74 51.2633912"></polygon>
                    <path d="M15.6602416,14.9871363 C14.010342,16.4564603 11.4818995,16.3097193 10.0125574,14.6604781 C8.54385323,13.0105989 8.68995803,10.4821877 10.3398577,9.01286372 C11.9897573,7.54353974 14.5181997,7.69028073 15.9869039,9.33952193 C17.456246,10.9894011 17.3101412,13.5178123 15.6602416,14.9871363 Z" id="Stroke-3" stroke="#ACCF84" stroke-width="3" stroke-linecap="round" stroke-linejoin="round"></path>
                    <path d="M23.5802244,23.7169508 L24.0602612,24.2611811 C24.6681041,24.9518162 25.3707313,25.0531258 25.9009122,24.5756116 C26.457388,24.0746232 26.4005174,23.4426736 25.8495452,22.7983692 C25.5535734,22.4623178 25.357278,22.2961453 25.2514865,22.2127502 L23.5802244,23.7169508 Z M24.9775291,20 C25.4422782,20.3805288 26.0800851,20.9945639 26.7282878,21.730294 C27.5293684,22.6383741 27.9549807,23.3951075 27.9971751,24.1388683 C28.0295852,24.7603163 27.7837574,25.3403756 27.22667,25.8419817 C26.4531074,26.5369409 25.4343285,26.460341 24.7818453,26.1039041 L24.7543273,26.127996 C24.9597953,26.7086731 24.7641115,27.3085001 24.3421682,27.9639239 C23.8272752,28.7694589 23.2041445,29.6719792 23.0751155,30 L21.8257966,28.5835187 C21.9089623,28.3302446 22.2746464,27.7403015 22.8610863,26.8872004 C23.4713752,26.0446009 23.4463033,25.5948851 22.9589282,25.0240919 L22.5914096,24.6064986 L20.2083476,26.749444 L19,25.3774401 L24.9775291,20 Z" id="Fill-5" fill="#ACCF84"></path>
                    <polygon id="Fill-7" fill="#ACCF84" points="29.5325995 31.5290855 27.6297792 29.3624298 26.2510259 30.6073952 28.3766039 33.0272037 27.299746 34 24 30.2431165 29.8075295 25 33 28.6338726 31.9231421 29.6066689 29.9048394 27.3086827 28.6978441 28.3979531 30.6012506 30.5640145"></polygon>
                    <path d="M28,35.1823574 L34.331087,30 L35.8200778,31.5369707 L34.6717016,34.6449756 C34.3393946,35.5359135 33.8843897,36.5272802 33.4217161,37.3706466 L33.4472782,37.3964879 C34.1988032,36.625947 35.0289316,35.9006284 35.9772846,35.1242145 L37.8286179,33.6095613 L39,34.8176426 L32.668913,40 L31.3294603,38.6186645 L32.5673038,35.3767546 C32.9098356,34.4775944 33.35845,33.4286721 33.8243188,32.5365596 L33.78981,32.5177659 C32.9871609,33.2372115 32.1116598,33.9848476 31.0783129,34.8305632 L29.1713821,36.3916133 L28,35.1823574 Z" id="Fill-9" fill="#ACCF84"></path>
                    <polygon id="Fill-11" fill="#ACCF84" points="40.0452546 38.5262851 38.5549969 36.9762633 39.7379007 36 44 40.4351245 42.8170962 41.4113878 41.3035827 39.8363186 36.2595852 44 35 42.6899665"></polygon>
                    <polygon id="Fill-13" fill="#ACCF84" points="46 42.421875 40.1771472 48 39 46.578125 44.8222651 41"></polygon>
                    <path d="M41,49.1823789 L47.331726,44 L48.8207169,45.5365639 L47.6717016,48.6443465 C47.3393946,49.5359765 46.8850288,50.5268722 46.4217161,51.3709251 L46.4472782,51.3973568 C47.1994423,50.626138 48.0295707,49.9007342 48.9779237,49.1236417 L50.829257,47.6088106 L52,48.8176211 L45.668913,54 L44.3300993,52.6185022 L45.5679428,49.3762115 C45.9098356,48.477533 46.35845,47.4290749 46.8249579,46.5362702 L46.7904491,46.5180617 C45.9877999,47.236417 45.1116598,47.9847283 44.0783129,48.8299559 L42.1713821,50.3911894 L41,49.1823789 Z" id="Fill-15" fill="#ACCF84"></path>
                    <path d="M51.5643155,60 C51.0375827,59.7001574 50.116574,59.0656356 49.3954885,58.2513326 C48.398967,57.1272337 47.9601261,56.0609883 48.0028342,55.0046961 C48.0288304,53.9664443 48.5537063,52.9375236 49.4623359,52.1406389 C51.5086093,50.326031 53.9943425,50.7739288 55.7849865,52.7950673 C56.489979,53.5900858 56.8780654,54.3415586 57,54.7745264 L55.6302471,55.4749887 C55.4755077,55.0065623 55.2217352,54.4796604 54.6219654,53.8028372 C53.5932581,52.6414135 52.1597526,52.3502799 50.8314698,53.5390752 C49.5663208,54.6712611 49.5260885,56.1343937 50.5393219,57.2777771 C50.8228044,57.5975263 51.0858614,57.8208531 51.2375059,57.881817 L52.5199858,56.7334569 L51.6775847,55.7829184 L52.7607603,54.8137175 L54.7940356,57.1091934 L51.5643155,60 Z" id="Fill-17" fill="#ACCF84"></path>
                </g>
            </g>
        </g>
    </g>
</svg>