<?xml version="1.0" encoding="UTF-8"?>
<svg width="87px" height="81px" viewBox="0 0 87 81" version="1.1" xmlns="http://www.w3.org/2000/svg" xmlns:xlink="http://www.w3.org/1999/xlink">
    <!-- Generator: Sketch 52.5 (67469) - http://www.bohemiancoding.com/sketch -->
    <title>Group 19</title>
    <desc>Created with Sketch.</desc>
    <g id="Welcome" stroke="none" stroke-width="1" fill="none" fill-rule="evenodd">
        <g id="Home-Desktop" transform="translate(-1097.000000, -1091.000000)">
            <g id="Benefits" transform="translate(0.000000, 700.000000)">
                <g id="Group-19" transform="translate(1099.000000, 393.000000)">
                    <path d="M13,6.5 C13,10.0900526 10.0900526,13 6.5,13 C2.90994737,13 0,10.0900526 0,6.5 C0,2.90994737 2.90994737,0 6.5,0 C10.0900526,0 13,2.90994737 13,6.5 Z" id="Stroke-1" stroke="#ACCF84" stroke-width="3" stroke-linecap="round" stroke-linejoin="round"></path>
                    <path d="M13,28.5 C13,32.0900526 10.0900526,35 6.5,35 C2.90994737,35 0,32.0900526 0,28.5 C0,24.9099474 2.90994737,22 6.5,22 C10.0900526,22 13,24.9099474 13,28.5 Z" id="Stroke-3" stroke="#ACCF84" stroke-width="3" stroke-linecap="round" stroke-linejoin="round"></path>
                    <path d="M13,49.5 C13,53.0900526 10.0900526,56 6.5,56 C2.90994737,56 0,53.0900526 0,49.5 C0,45.9099474 2.90994737,43 6.5,43 C10.0900526,43 13,45.9099474 13,49.5 Z" id="Stroke-5" stroke="#ACCF84" stroke-width="3" stroke-linecap="round" stroke-linejoin="round"></path>
                    <path d="M13,70.5 C13,74.0900526 10.0900526,77 6.5,77 C2.90994737,77 0,74.0900526 0,70.5 C0,66.9099474 2.90994737,64 6.5,64 C10.0900526,64 13,66.9099474 13,70.5 Z" id="Stroke-7" stroke="#ACCF84" stroke-width="3" stroke-linecap="round" stroke-linejoin="round"></path>
                    <path d="M24,6.5 L83,6.5" id="Stroke-9" stroke="#ACCF84" stroke-width="3" stroke-linecap="round" stroke-linejoin="round"></path>
                    <path d="M24,28.5 L83,28.5" id="Stroke-11" stroke="#ACCF84" stroke-width="3" stroke-linecap="round" stroke-linejoin="round"></path>
                    <path d="M24,49.5 L83,49.5" id="Stroke-13" stroke="#ACCF84" stroke-width="3" stroke-linecap="round" stroke-linejoin="round"></path>
                    <path d="M24,70.5 L83,70.5" id="Stroke-15" stroke="#ACCF84" stroke-width="3" stroke-linecap="round" stroke-linejoin="round"></path>
                    <path d="M3,28.5 C3,26.5670279 4.56702789,25 6.5,25 C8.43297211,25 10,26.5670279 10,28.5 C10,30.4329721 8.43297211,32 6.5,32 C4.56702789,32 3,30.4329721 3,28.5" id="Fill-17" fill="#ACCF84"></path>
                </g>
            </g>
        </g>
    </g>
</svg>