<svg xmlns="http://www.w3.org/2000/svg" width="65" height="78" viewBox="0 0 65 78">
    <g fill="none" fill-rule="evenodd" stroke="#ACCF84" stroke-linecap="round" stroke-linejoin="round" stroke-width="3">
        <path d="M32.5 76C2 55.473 2 21.711 2 21.711L16.206 2h32.588L63 21.711S63 55.473 32.5 76"/>
        <path d="M32.984 44.139c-3.12-3.023-6.26-6-9.32-9.058-1.384-1.384-2.432-3.028-2.861-5.017-.443-2.053-.118-3.975.933-5.757 1.144-1.94 2.753-3.365 5.002-3.669 2.018-.272 4.047-.102 5.813 1.142.357.252.61.204.959-.012 2.265-1.4 4.698-1.641 7.151-.722 2.823 1.056 4.805 4.275 4.762 7.353-.03 2.13-.742 4.03-2.128 5.559-1.903 2.1-3.948 4.068-5.964 6.06-1.408 1.39-2.87 2.724-4.347 4.12z"/>
    </g>
</svg>
