<svg xmlns="http://www.w3.org/2000/svg" width="83" height="79" viewBox="0 0 83 79">
    <g fill="none" fill-rule="evenodd">
        <path stroke="#ACCF84" stroke-linecap="round" stroke-linejoin="round" stroke-width="3" d="M31.753 41.054L18.416 53.378M47.57 42.092l12.812-11.725c5.103 2.581 11.484 1.9 15.953-2.19 3.381-3.095 4.914-7.452 4.545-11.69a8.915 8.915 0 0 1-1.5 1.8 8.921 8.921 0 0 1-12.605-.558 8.925 8.925 0 0 1 .558-12.607 8.924 8.924 0 0 1 1.926-1.335A14.136 14.136 0 0 0 57.214 7.28c-4.226 3.868-5.565 9.708-3.907 14.824L40.219 34.083M25.898 61.929l13.653-12.496M25.926 61.62l-3.11 9.844-10.08 2.228-6.968-7.616 3.11-9.844 10.08-2.228"/>
        <path fill="#ACCF84" d="M18 57.032l-6.979 1.543-2.153 6.816 4.825 5.273 6.98-1.543 2.153-6.816L18 57.032zm-.785 2.485l3.066 3.351-1.369 4.33-4.433.98-3.066-3.35 1.368-4.33 4.434-.98z"/>
        <path stroke="#ACCF84" stroke-linecap="round" stroke-linejoin="round" stroke-width="3" d="M60.794 56.498L29.182 22.059c2.573-5.109 1.882-11.489-2.215-15.952-3.1-3.377-7.459-4.903-11.696-4.527a8.91 8.91 0 0 1 1.803 1.498 8.923 8.923 0 0 1-.54 12.607 8.92 8.92 0 0 1-12.605-.539 8.927 8.927 0 0 1-1.337-1.924c-.737 4.19.411 8.665 3.511 12.041 3.874 4.22 9.716 5.551 14.828 3.885l31.854 34.703"/>
        <path stroke="#ACCF84" stroke-linecap="round" stroke-linejoin="round" stroke-width="3" d="M60.485 56.47l9.847 3.095 2.244 10.077-7.604 6.982-9.848-3.095-2.243-10.077"/>
        <path fill="#ACCF84" d="M61.175 59.57l-5.265 4.833 1.554 6.978 6.818 2.143 5.265-4.834-1.553-6.977-6.819-2.143zm.567 2.544l4.332 1.362.987 4.433-3.346 3.071-4.332-1.362-.986-4.433 3.345-3.071z"/>
    </g>
</svg>
