<svg xmlns="http://www.w3.org/2000/svg" width="40" height="40" viewBox="0 0 40 40">
    <g fill="none" fill-rule="evenodd">
        <path fill="#1DA1F2" d="M0 40h40V0H0z"/>
        <path fill="#FFF" d="M15.362 30.159c9.435 0 14.594-7.816 14.594-14.594 0-.222-.005-.443-.015-.663a10.434 10.434 0 0 0 2.559-2.656c-.919.409-1.908.684-2.946.808a5.147 5.147 0 0 0 2.256-2.837 10.277 10.277 0 0 1-3.257 1.245 5.13 5.13 0 0 0-8.74 4.678A14.562 14.562 0 0 1 9.24 10.78a5.111 5.111 0 0 0-.695 2.578c0 1.78.906 3.35 2.283 4.27a5.091 5.091 0 0 1-2.323-.642l-.001.066a5.131 5.131 0 0 0 4.115 5.028 5.144 5.144 0 0 1-2.317.088 5.135 5.135 0 0 0 4.792 3.562 10.292 10.292 0 0 1-6.37 2.196c-.414 0-.823-.024-1.224-.071a14.52 14.52 0 0 0 7.862 2.304"/>
    </g>
</svg>
